# xmcd CD database file
#
# Track frame offsets:
#	150
#	8892
#	21758
#	45653
#	73432
#	96002
#	115844
#	130167
#	156495
#	174907
#
# Disc length: 2636 seconds
#
# Revision: 0
# Processed by: cddbd v1.5.2PL0 Copyright (c) Steve Scherf et al.
# Submitted via: CDex 1.51
#
DISCID=810a4a0a
DTITLE=Heralder - Twilight Kingdom
DYEAR=2007
DGENRE=Country
TTITLE0=Introduction
TTITLE1=Twilight Entrance
TTITLE2=Cold Dark Walls
TTITLE3=Queen of Snowfall
TTITLE4=The Crimson Gloom
TTITLE5=The King's Return
TTITLE6=Battleground
TTITLE7=Secret of Silence
TTITLE8=A Legend of Victory
TTITLE9=The Forest Hides The Prize of Wisdom
EXTD=YEAR: 2007
EXTT0=
EXTT1=
EXTT2=
EXTT3=
EXTT4=
EXTT5=
EXTT6=
EXTT7=
EXTT8=
EXTT9=
PLAYORDER=
